<?xml version="1.0" ?><svg enable-background="new 0 0 32 32" version="1.1" viewBox="0 0 32 32" xml:space="preserve" xmlns="http://www.w3.org/2000/svg" xmlns:xlink="http://www.w3.org/1999/xlink"><g id="Layer_4_copy"><linearGradient gradientUnits="userSpaceOnUse" id="SVGID_1_" x1="16" x2="16" y1="32" y2="0"><stop offset="0" style="stop-color:#FF2D76"/><stop offset="1" style="stop-color:#FB0000"/></linearGradient><path d="M28.722,12.722C28.722,5.696,23.026,0,16,0S3.278,5.696,3.278,12.722   c0,5.666,3.706,10.462,8.825,12.108L16,32l3.898-7.169C25.016,23.184,28.722,18.388,28.722,12.722z" fill="url(#SVGID_1_)"/></g><g id="Official_copy_2"><path d="M18.856,20.559h-2.097H14.66c0,0,0.006-1.245,0-2.099c-2.872,0.618-3.673-1.574-3.673-1.574   c-0.525-1.049-1.049-1.574-1.049-1.574c-1.049-0.623,0-0.525,0-0.525c1.049,0,1.574,1.049,1.574,1.049   c0.921,1.564,2.56,1.312,3.148,1.049c0-0.525,0.23-1.318,0.525-1.574c-2.292-0.258-4.2-1.574-4.2-4.198s0.527-3.148,1.052-3.673   c-0.106-0.259-0.545-1.215,0.016-2.624c0,0,1.031,0,2.081,1.574c0.52-0.52,2.099-0.525,2.624-0.525   c0.524,0,2.103,0.005,2.623,0.525c1.049-1.574,2.083-1.574,2.083-1.574c0.561,1.409,0.122,2.365,0.016,2.624   c0.525,0.525,1.049,1.049,1.049,3.673s-1.905,3.94-4.198,4.198c0.295,0.256,0.525,1.159,0.525,1.574L18.856,20.559L18.856,20.559z" fill="#FFFFFF" id="Cat_1_"/></g></svg>