<?xml version="1.0" encoding="utf-8"?>
<!-- Generator: Adobe Illustrator 25.4.1, SVG Export Plug-In . SVG Version: 6.00 Build 0)  -->
<svg version="1.1" id="Слой_1" xmlns="http://www.w3.org/2000/svg" xmlns:xlink="http://www.w3.org/1999/xlink" x="0px" y="0px"
	 viewBox="0 0 2913.3 2625.5" style="enable-background:new 0 0 2913.3 2625.5;" xml:space="preserve">
<style type="text/css">
	.st0{fill:none;stroke:#FFCF2D;stroke-width:6;stroke-linecap:round;stroke-miterlimit:10;}
	.st1{fill:none;stroke:#66B0F0;stroke-width:6;stroke-linecap:round;stroke-linejoin:round;stroke-miterlimit:10;}
	.st2{fill:#FFFFFF;stroke:#66B0F0;stroke-width:6;stroke-miterlimit:10;}
	.st3{fill:#FFFFFF;stroke:#FFCF2D;stroke-width:6;stroke-miterlimit:10;}
	.st4{fill:#31A1A9;}
	.st5{fill:#E57281;}
	.st6{fill:#FFFFFF;stroke:#FE5244;stroke-width:6;stroke-miterlimit:10;}
	.st7{fill:none;stroke:#FE5244;stroke-width:6;stroke-miterlimit:10;}
	.st8{fill:#3FB1B5;}
	.st9{fill:none;stroke:#FFFFFF;stroke-width:6;stroke-miterlimit:10;}
	.st10{fill:#73325A;}
	.st11{fill:none;stroke:#FE5244;stroke-width:6;stroke-linecap:round;stroke-miterlimit:10;}
	.st12{fill:#9A3B82;}
	.st13{fill:#FFCF2D;}
	.st14{fill:none;stroke:#FFCF2D;stroke-width:6;stroke-miterlimit:10;}
	.st15{fill:#FE5244;}
	.st16{fill:#FFCF2D;stroke:#FFCF2D;stroke-width:6;stroke-miterlimit:10;}
	.st17{fill:#FFFFFF;}
	.st18{fill:none;stroke:#FE5244;stroke-width:5;stroke-miterlimit:10;}
	.st19{fill:#66B0F0;}
	.st20{fill:none;stroke:#FFFFFF;stroke-width:5;stroke-linecap:round;stroke-miterlimit:10;}
	.st21{fill:none;stroke:#FFFFFF;stroke-width:5;stroke-miterlimit:10;}
	.st22{fill:#FFFFFF;stroke:#66B0F0;stroke-width:6;stroke-linejoin:round;stroke-miterlimit:10;}
	.st23{fill:none;stroke:#66B0F0;stroke-width:6;stroke-miterlimit:10;}
	.st24{fill:none;stroke:#9A3B82;stroke-width:5;stroke-linecap:round;stroke-miterlimit:10;}
	.st25{fill:none;stroke:#FFCF2D;stroke-width:5;stroke-linecap:round;stroke-miterlimit:10;}
	.st26{fill:#3FB1B5;stroke:#FFFFFF;stroke-width:5;stroke-miterlimit:10;}
</style>
<g id="CHARACTER_x27_S_LEGS">
	<line id="SHADOW" class="st0" x1="1006.2" y1="2621.9" x2="2142.2" y2="2621.9"/>
	<g id="CHAIR">
		<path class="st1" d="M1573.8,1617v445c0,137,71,264.2,187.6,336.1l164.1,101.2"/>
		<path class="st1" d="M1484.9,1617v445c0,137-71,264.2-187.6,336.1l-164.1,101.2"/>
		<path class="st2" d="M1425.2,1617h200.1c17.7,0,32-14.3,32-32v-50.5h-264.1v50.5C1393.2,1602.7,1407.5,1617,1425.2,1617z"/>
		<path class="st3" d="M1932.9,2621.9c-40.6,0-73.5-32.9-73.5-73.5s32.9-73.5,73.5-73.5s73.5,32.9,73.5,73.5
			C2006.4,2589,1973.5,2621.9,1932.9,2621.9"/>
		<path class="st3" d="M1131.6,2621.9c-40.6,0-73.5-32.9-73.5-73.5s32.9-73.5,73.5-73.5s73.5,32.9,73.5,73.5
			C1205.1,2589,1172.2,2621.9,1131.6,2621.9"/>
		<path class="st3" d="M1131.6,2606.4c-32,0-58-26-58-58s26-58,58-58s58,26,58,58S1163.6,2606.4,1131.6,2606.4"/>
		<path class="st3" d="M1932.6,2606.4c-32,0-58-26-58-58s26-58,58-58s58,26,58,58S1964.6,2606.4,1932.6,2606.4"/>
		<path class="st1" d="M1421.3,2277c0,0,95.2-69.8,216.3,0"/>
	</g>
	<g id="RIGHT_LEG">
		<path class="st4" d="M1571.5,1494.6l-92,941.3H1763l233.1-847c42.9-138.2-49.4-278.8-193.1-279.1h-20
			C1676.6,1309.5,1586.4,1388.4,1571.5,1494.6z"/>
		<path class="st5" d="M1534.9,2435.9h149.4l-23.5,76.9c-29.5-29.4-70.6-50.6-115.5-53.3c-4.2-0.3-8.3-0.4-12.4-0.4L1534.9,2435.9z"
			/>
		<path class="st6" d="M1706.3,2621.3c7.8-72.4-68.6-156.2-161.1-161.9s-149.6,55.4-154.1,128c-0.7,11-1.7,24.4,0.7,34.2
			L1706.3,2621.3z"/>
		<polyline class="st7" points="1393.8,2595 1393.8,2595 1706.3,2598.7 		"/>
	</g>
	<g id="LEFT_LEG">
		<path class="st8" d="M1652.1,2435.9l236.5-144L1359.8,1406c-66.9-106.1-236.7-138.9-343.8-73.7l0,0
			c-123.5,75.2-147.7,244.3-50.3,351.1L1652.1,2435.9z"/>
		<path class="st9" d="M1653.1,2431.9l237.5-142L1360.8,1406c-66.9-106.1-236.7-138.9-343.8-73.7l0,0
			c-123.5,75.2-147.7,244.3-50.3,351.1L1653.1,2431.9z"/>
		<path class="st10" d="M1884.9,2285.6c-10.5-17.4-72,0.3-137.4,39.7c-65.4,39.3-109.7,86.7-99.2,104.1s71.8-1.7,137.2-41
			C1850.8,2349.1,1895.3,2303.1,1884.9,2285.6z"/>
		<path class="st5" d="M1870.5,2398.2l-110.4,69.4l-31.2-35l-9.5-10.7l-39.6-44.4c17-17.4,40.3-35.8,67.8-52.2
			c22.2-13.3,44.1-23.9,63.9-31.1l30.9,54.3l6.8,11.9L1870.5,2398.2z"/>
		<path class="st6" d="M2044.7,2473.5l-275,148.3l0,0c-6.9-7.4-12.8-16.1-17.5-26c-4-8.3-7.1-17-9.5-25.8
			c-16.2-60.8,6.7-130.5,79.8-165.3c64.5-30.7,144.8-13.1,191.2,27.3C2027.4,2444.1,2038.2,2458.2,2044.7,2473.5z"/>
		<line class="st11" x1="2030" y1="2451" x2="1754.9" y2="2599.3"/>
		<path class="st12" d="M1842.2,2348.4c-15.8,13.2-35.2,27-56.9,40c-23.2,14-46,25.4-66.1,33.5l-41.6-44.4
			c17-17.4,42.3-35.8,69.8-52.2c22.2-13.3,44.1-24.9,63.9-32.1L1842.2,2348.4z"/>
		<path class="st9" d="M1878.8,2270.2c-10.5-17.4-76.9-0.1-143.4,39.9s-108.7,86.9-98.2,104.3"/>
	</g>
</g>
<g id="TABLE">
	<path class="st12" d="M2799.4,1534.5c26.1,0,47.3-21.2,47.3-47.3v-181c0-26.1-21.2-47.3-47.3-47.3H169c-26.1,0-47.3,21.2-47.3,47.3
		v181c0,26.1,21.2,47.3,47.3,47.3H2799.4z"/>
	<path class="st3" d="M2798.6,1217.9H169.7c-26.1,0-47.3,21.2-47.3,47.3v181c0,26.1,21.2,47.3,47.3,47.3h2628.9
		c26.1,0,47.3-21.2,47.3-47.3v-181C2845.9,1239.1,2824.7,1217.9,2798.6,1217.9z"/>
	<line class="st0" x1="2661.7" y1="1493.7" x2="2661.7" y2="2622.3"/>
	<line class="st0" x1="366.8" y1="1493.7" x2="366.8" y2="2622.3"/>
</g>
<g id="PLANT">
	<g>
		<g>
			<path class="st12" d="M280.4,2341.4l-4.2,2.7L123.6,2109l-45.9,3.5c-9.8,0.8-17.6-8.1-15.6-17.8c2.1-9.6,12.8-14.6,21.5-9.8
				l37.7,20.7l-27.7-42.8l-45.9,3.6c-9.8,0.8-17.6-8.2-15.5-17.8c2.1-9.6,12.8-14.6,21.5-9.8l37.7,20.6l-27.7-42.8l-45.9,3.6
				C8,2021,0.2,2012,2.3,2002.4s12.8-14.6,21.5-9.8l37.7,20.7l-16.7-25.7l-31-26.5c-7.5-6.4-6.7-18.2,1.5-23.6
				c8.3-5.4,19.4-1.3,22.2,8.2l11.5,39.1l17.2,26.5l-3.6-44c-0.8-9.8,8.1-17.6,17.7-15.6s14.6,12.8,9.9,21.4l-22.2,41l28.1,43.3
				l-3.6-43.9c-0.8-9.8,8.1-17.6,17.7-15.6s14.6,12.8,9.9,21.4l-22.2,41l28.1,43.3l-3.6-43.9c-0.8-9.8,8.1-17.7,17.7-15.6
				c9.6,2,14.6,12.8,9.9,21.4l-22.2,41L280.4,2341.4z"/>
		</g>
	</g>
	<g>
		<path class="st12" d="M536.8,2258.3C463.5,2406,364.5,2508.7,306,2501.6c-4.8-0.6-9.3-1.9-13.5-4c-55.6-27.6-36.4-179.5,43-339.3
			c34-68.5,73.5-127.2,111.9-169.9c51.3-56.9,100.6-85.2,132.4-69.4C635.4,1946.6,616.1,2098.5,536.8,2258.3z"/>
		<path class="st13" d="M445,2141.6c-16.3,187.2-76.2,338.2-138.9,360c-4.8-0.6-9.3-1.9-13.5-4c-55.6-27.6-36.4-179.5,43-339.3
			c34-68.5,73.5-127.2,111.9-169.9C450.3,2035.5,449.7,2087.4,445,2141.6z"/>
		<line class="st14" x1="579.8" y1="1919" x2="306.1" y2="2501.6"/>
	</g>
	<g>
		<g>
			<path class="st13" d="M574.6,2351l-38.7,13l-25.8,18.1l43.8-5.2c9.8-1.2,17.9,7.4,16.3,17.1l0,0c-1.7,9.7-12.2,15.1-21.1,10.7
				l-41.8-20.7l-42.3,29.7l43.8-5.2c9.8-1.2,17.9,7.4,16.3,17.1c-1.7,9.7-12.2,15.1-21.1,10.7l-41.8-20.7l-42.2,29.7l43.8-5.2
				c9.8-1.2,17.9,7.4,16.2,17.1c-1.7,9.7-12.2,15.1-21.1,10.7l-41.8-20.7l-77.3,54.3h-8.7l83.3-58.5l-5.2-45.7
				c-1.1-9.8,7.5-17.9,17.2-16.2s15,12.3,10.6,21.1l-19.3,38.5l41.7-29.3l-5.2-45.7c-1.1-9.8,7.5-17.9,17.2-16.2s15,12.3,10.6,21.1
				l-19.2,38.4l41.7-29.3l-5.2-45.7c-1.1-9.8,7.5-17.9,17.2-16.2s15,12.3,10.6,21.1l-19.3,38.5l25.1-17.6l25.3-32
				c6.1-7.7,18-7.4,23.6,0.7C587.7,2336.6,584,2347.9,574.6,2351z"/>
		</g>
	</g>
	<g>
		<path class="st3" d="M260.9,2493.8c-5,1.7-10.3,2.9-15.7,3.6c-63,8.2-150-50.6-202.6-139.9c-57.1-97-51.9-193.2,11.6-215
			c20.6-7.1,44.9-5.4,70.1,3.4c52.6,18.3,109.6,67.3,148.2,132.8C329.5,2375.8,324.3,2472,260.9,2493.8z"/>
		<path class="st13" d="M260.9,2493.8c-5,1.7-10.3,2.9-15.7,3.6c-58.2-26.4-108.8-138.2-119.5-274c-2.1-26.8-2.5-52.8-1.4-77.5
			c52.6,18.3,109.6,67.3,148.2,132.8C329.5,2375.8,324.3,2472,260.9,2493.8z"/>
		<line class="st14" x1="30.1" y1="2156.6" x2="245.1" y2="2497.4"/>
	</g>
	<g>
		<ellipse class="st3" cx="286.5" cy="2130.7" rx="126" ry="374.9"/>
		<line class="st14" x1="286.5" y1="1755.7" x2="286.5" y2="2505.6"/>
		<polyline class="st0" points="366.8,1845.6 286.5,1953.2 218.4,1818.4 		"/>
		<polyline class="st0" points="392.9,1936.8 285.7,2084.2 189.3,1897.7 		"/>
		<polyline class="st0" points="409.6,2042 284.7,2214.2 170.6,1994.2 		"/>
		<polyline class="st0" points="417.4,2182.4 285.3,2367.2 160.8,2131 		"/>
	</g>
	<path class="st2" d="M473.3,2622.3H99.4c-28.8,0-52.2-23.4-52.2-52.2v-16.3c0-28.8,23.4-52.2,52.2-52.2h373.9
		c28.8,0,52.2,23.4,52.2,52.2v16.3C525.5,2599,502.1,2622.3,473.3,2622.3z"/>
</g>
<g id="BOOKS">
	<path class="st15" d="M2674.5,1323L2674.5,1323c0,14.9-11.9,27-26.5,27h-407.3c-14.7,0-26.5-12.1-26.5-27l0,0
		c0-14.9,11.9-27,26.5-27H2648C2662.6,1296,2674.5,1308.1,2674.5,1323z"/>
	<g>
		<path class="st3" d="M2502.6,1041.8h-166.7v116h322l0,0C2637.5,1089,2574.3,1041.8,2502.6,1041.8z"/>
		<polygon class="st16" points="2365.9,1041.8 2365.9,1157.8 2296.9,1157.9 2296.9,1041.8 		"/>
		<path class="st14" d="M2913.2,1155.5l-255.3,2.3c0,0,63.9-86.6,239.3-63.7c0,0-137.2-28.6-276.4,0"/>
		<path class="st14" d="M2657.9,1157.8c0,0,111.9-61.5,248.3-31.7"/>
	</g>
	<g>
		<path class="st13" d="M2686.4,1252.7c0,10.9,1.7,20.8,4.4,28.1h-122.5c-6.3,0-11.5-5.5-11.5-12.2v-31.7c0-6.8,5.1-12.2,11.5-12.2
			h122.5C2688.1,1231.9,2686.4,1241.8,2686.4,1252.7z"/>
		<path class="st17" d="M2556.9,1236.9v31.7c0,6.8,5.5,12.2,12.2,12.2h131.6v2.3c0,5.6-4.5,10.1-10.1,10.1h-460.3
			c-5.6,0-10.1-4.5-10.1-10.1v-60.8c0-5.6,4.5-10.1,10.1-10.1h460.3c5.6,0,10.1,4.5,10.1,10.1v2.3h-131.6
			C2562.4,1224.7,2556.9,1230.1,2556.9,1236.9z"/>
		<path class="st14" d="M2556.9,1236.9v31.7c0,6.8,5.5,12.2,12.2,12.2h131.6v2.3c0,5.6-4.5,10.1-10.1,10.1h-460.3
			c-5.6,0-10.1-4.5-10.1-10.1v-60.8c0-5.6,4.5-10.1,10.1-10.1h460.3c5.6,0,10.1,4.5,10.1,10.1v2.3h-131.6
			C2562.4,1224.7,2556.9,1230.1,2556.9,1236.9z"/>
	</g>
	<g>
		<path class="st13" d="M2385.4,1371.7c-4.8,4.5-7.8,12.7-7.8,19.6c0,13.7,12,27.8,26.8,27.8h368.8l0,0c0,6.4-5.2,11.7-11.7,11.7
			h-445.1c-11.9,0-22.7-4.5-30.5-11.7s-12.7-17.2-12.7-28.3c0-22.1,19.3-40,43.2-40h445.1c6.4,0,11.7,5.2,11.7,11.7v2.1h-368.8
			C2396.9,1364.5,2390.2,1367.3,2385.4,1371.7z"/>
		<path class="st15" d="M2746.5,1364.5v53.6h26.6v4.5h-370c-4.1,0-8.1-0.8-11.7-2.3l0,0c-3.9-1.6-7.5-3.9-10.4-6.9
			c-5.7-5.7-9.2-13.5-9.2-22.1c0-17.3,14-31.3,31.3-31.3h370v4.5L2746.5,1364.5L2746.5,1364.5z"/>
		<path class="st17" d="M2756.8,1364.5v53.6h-352.4c-14.8,0-26.8-12-26.8-26.8c0-7.4,3-14.1,7.8-19c4.8-4.8,11.5-7.8,18.9-7.8
			L2756.8,1364.5L2756.8,1364.5z"/>
		<line class="st18" x1="2756.8" y1="1364.5" x2="2756.8" y2="1418.1"/>
		<path class="st15" d="M2453.5,1402.5v44.7h-30.9v-39c0-9.3-7.5-16.9-16.9-16.9h-13.8v-5.7h44.7
			C2446,1385.6,2453.5,1393.2,2453.5,1402.5z"/>
	</g>
	<g>
		<path class="st19" d="M2774.6,1160.3h-525.4c-13.6,0-24.6,11-24.6,24.6l0,0c0.1,13.5,11,24.5,24.6,24.5h525.4
			c13.6,0,24.6-11,24.6-24.6l0,0C2799.1,1171.3,2788.1,1160.3,2774.6,1160.3z"/>
		<g>
			<g>
				<path class="st12" d="M2655.4,1209.5h-5.3c0.6,1.6,2.1,5.6,5.4,5.6c2,0,11.8-1.5,11.8-30.2c0-10.2-1.2-18-3.6-23.3
					c-2.9-6.3-6.7-7-8.1-7c-3.4,0-4.9,4.1-5.5,5.7h5.3c0.2-0.4,0.4-0.6,0.5-0.7c1.8,0.5,6.6,5.5,6.6,25.3s-4.8,24.7-6.6,25.3
					C2655.7,1210,2655.5,1209.8,2655.4,1209.5z"/>
			</g>
			<g>
				<path class="st12" d="M2698.8,1209.5h-5.3c0.6,1.6,2.1,5.6,5.4,5.6c2,0,11.8-1.5,11.8-30.2c0-10.2-1.2-18-3.6-23.3
					c-2.9-6.3-6.7-7-8.1-7c-3.4,0-4.9,4.1-5.5,5.7h5.3c0.2-0.4,0.4-0.6,0.5-0.7c1.8,0.5,6.6,5.5,6.6,25.3s-4.8,24.7-6.6,25.3
					C2699.2,1210,2699,1209.8,2698.8,1209.5z"/>
			</g>
			<g>
				<path class="st12" d="M2742.3,1209.5h-5.3c0.6,1.6,2.1,5.6,5.4,5.6c2.8,0,11.8-2.2,11.8-30.2c0-28.1-9-30.2-11.8-30.2
					c-3.4,0-4.9,4.1-5.5,5.7h5.3c0.2-0.4,0.4-0.6,0.5-0.7c2,0.5,6.6,5.7,6.6,25.3c0,12-1.7,18.2-3.2,21.4c-1.2,2.6-2.5,3.7-3.4,3.9
					C2742.6,1210,2742.5,1209.8,2742.3,1209.5z"/>
			</g>
			<g>
				<path class="st12" d="M2524.9,1209.5h-5.3c0.6,1.6,2.1,5.6,5.4,5.6c2,0,11.8-1.5,11.8-30.2c0-28.1-9-30.2-11.8-30.2
					c-3.4,0-4.9,4.1-5.5,5.7h5.3c0.2-0.4,0.4-0.6,0.5-0.7c2,0.5,6.6,5.7,6.6,25.3c0,19.8-4.8,24.7-6.6,25.3
					C2525.3,1210,2525.1,1209.8,2524.9,1209.5z"/>
			</g>
			<g>
				<path class="st12" d="M2568.4,1209.5h-5.3c0.6,1.6,2.1,5.6,5.4,5.6c1.9,0,5.4-0.8,8.1-6.4c2.4-5.1,3.7-13.1,3.7-23.8
					c0-10.7-1.2-18.7-3.7-23.8c-2.7-5.6-6.2-6.4-8.1-6.4c-3.4,0-4.9,4.1-5.5,5.7h5.3c0.2-0.4,0.4-0.6,0.5-0.7
					c1.2,0.2,2.4,1.5,3.4,3.6c1.4,3,3.2,9.2,3.2,21.7c0,12.4-1.7,18.6-3.2,21.7c-1,2.1-2.3,3.4-3.4,3.6
					C2568.7,1210,2568.6,1209.8,2568.4,1209.5z"/>
			</g>
			<g>
				<path class="st12" d="M2611.9,1209.5h-5.3c0.6,1.6,2.1,5.6,5.4,5.6c2.8,0,11.8-2.2,11.8-30.2c0-28.8-9.8-30.2-11.8-30.2
					c-3.4,0-4.9,4.1-5.5,5.7h5.3c0.2-0.4,0.4-0.6,0.5-0.7c1.8,0.5,6.6,5.5,6.6,25.3c0,19.6-4.6,24.8-6.6,25.3
					C2612.2,1210,2612.1,1209.8,2611.9,1209.5z"/>
			</g>
			<g>
				<path class="st12" d="M2394.5,1209.5h-5.3c0.6,1.6,2.1,5.6,5.4,5.6c1.5,0,5.3-0.7,8.1-7c2.4-5.2,3.6-13.1,3.6-23.3
					c0-9.4-1.3-17.3-3.6-22.7c-2.1-4.8-5.1-7.6-8.2-7.6c-3.4,0-4.9,4.1-5.5,5.7h5.3c0.2-0.3,0.3-0.6,0.4-0.7c0.6,0.3,2,1.4,3.4,4.6
					c1.5,3.3,3.2,9.6,3.2,20.6c0,19.8-4.8,24.7-6.6,25.3C2394.8,1210,2394.7,1209.8,2394.5,1209.5z"/>
			</g>
			<g>
				<path class="st12" d="M2438,1209.5h-5.3c0.6,1.6,2.1,5.6,5.4,5.6c1.5,0,5.3-0.7,8.1-7c2.4-5.2,3.6-13.1,3.6-23.3
					c0-28.1-9-30.2-11.8-30.2c-3.4,0-4.9,4.1-5.5,5.7h5.3c0.2-0.4,0.4-0.6,0.5-0.7c2,0.5,6.6,5.7,6.6,25.3c0,19.8-4.8,24.7-6.6,25.3
					C2438.3,1210,2438.2,1209.8,2438,1209.5z"/>
			</g>
			<g>
				<path class="st12" d="M2481.5,1209.5h-5.3c0.6,1.6,2.1,5.6,5.4,5.6c2.8,0,11.8-2.2,11.8-30.2c0-10.7-1.2-18.7-3.7-23.8
					c-2.7-5.6-6.2-6.4-8.1-6.4c-3.4,0-4.9,4.1-5.5,5.7h5.3c0.2-0.4,0.4-0.6,0.5-0.7c1.2,0.2,2.4,1.5,3.4,3.6c1.4,3,3.2,9.2,3.2,21.7
					c0,19.6-4.6,24.8-6.6,25.3C2481.8,1210,2481.6,1209.8,2481.5,1209.5z"/>
			</g>
			<g>
				<path class="st12" d="M2264.1,1209.5h-5.3c0.6,1.6,2.1,5.6,5.4,5.6c3.1,0,6-2.8,8.2-7.6c2.4-5.4,3.6-13.2,3.6-22.7
					c0-11.1-2-18.1-3.6-22c-2.2-5.2-5.2-8.2-8.2-8.2c-3.4,0-4.9,4.1-5.5,5.7h5.3c0.2-0.3,0.3-0.5,0.4-0.7c0.7,0.4,2.2,1.8,3.6,5.6
					c1.4,3.5,3,9.7,3,19.6c0,11.1-1.7,17.3-3.2,20.7c-1.4,3.2-2.8,4.3-3.4,4.6C2264.4,1210,2264.2,1209.8,2264.1,1209.5z"/>
			</g>
			<g>
				<path class="st12" d="M2307.5,1209.5h-5.3c0.6,1.6,2.1,5.6,5.4,5.6c3.1,0,6-2.8,8.2-7.6c2.4-5.4,3.6-13.2,3.6-22.7
					c0-19.6-6.1-30.2-11.8-30.2c-3.4,0-4.9,4.1-5.5,5.7h5.3c0.2-0.3,0.3-0.5,0.4-0.7c0.7,0.4,2.1,1.8,3.6,5.4c1.4,3.4,3,9.7,3,19.8
					c0,11.1-1.7,17.3-3.2,20.7c-1.4,3.2-2.8,4.3-3.4,4.6C2307.8,1210,2307.7,1209.8,2307.5,1209.5z"/>
			</g>
			<g>
				<path class="st12" d="M2351,1209.5h-5.3c0.6,1.6,2.1,5.6,5.4,5.6c1.5,0,5.2-0.7,8.2-7.4c2.4-5.4,3.6-13.1,3.6-22.8
					c0-9.4-1.3-17.3-3.6-22.7c-2.1-4.8-5.1-7.6-8.2-7.6c-3.4,0-4.9,4.1-5.5,5.7h5.3c0.2-0.3,0.3-0.6,0.4-0.7c0.6,0.3,2,1.4,3.4,4.6
					c1.5,3.3,3.2,9.6,3.2,20.6c0,11.3-1.7,17.5-3.2,20.8c-1.4,3.1-2.8,4.2-3.4,4.4C2351.3,1210,2351.2,1209.8,2351,1209.5z"/>
			</g>
		</g>
	</g>
</g>
<g id="CLOCK">
	<path class="st13" d="M2589,457.4h-350.6c-20.3,0-36.7-16.4-36.7-36.7V70.1c0-20.3,16.4-36.7,36.7-36.7H2589
		c20.3,0,36.7,16.4,36.7,36.7v350.6C2625.7,441,2609.2,457.4,2589,457.4z"/>
	<path class="st3" d="M2563.4,433.9h-357.5c-20.3,0-36.7-16.4-36.7-36.7V39.7c0-20.3,16.4-36.7,36.7-36.7h357.5
		c20.3,0,36.7,16.4,36.7,36.7v357.5C2600.1,417.5,2583.7,433.9,2563.4,433.9z"/>
	<circle class="st14" cx="2384.7" cy="218.4" r="165"/>
	<polyline class="st0" points="2291.9,147.6 2384.7,218.4 2361.9,148.5 	"/>
</g>
<g id="PAPER">
	<polygon class="st13" points="2090.9,1493.5 1808.2,1493.5 1689.5,1350.9 1965.4,1350.9 	"/>
	<g>
		<g>
			<path class="st2" d="M2244,1500.9v88l-224,0.9c-28.7,0.1-52-23.1-52-51.8v-27.3c0-18.2-6.7-35.7-18.7-49.2l-73.9-83h275.9
				l70.6,69.7C2236.1,1462.1,2244,1481,2244,1500.9z"/>
		</g>
		<path class="st2" d="M2344.8,1557.9c-9.5,19-29.1,32-51.8,32h-276c22.6,0,42.2-13,51.8-32H2344.8z"/>
	</g>
</g>
<g id="CHARACTER">
	<g id="HOODY">
		<path class="st15" d="M2173.7,1009.8L2005.3,714c-40.2-70.7-115.3-114.3-196.6-114.3H1178l22.1-47.7c-1.8,3.9-11.3,4.9-25.8,2.9
			c-22.2-3-56-12.7-92-28.7c-20.6-9.1-39.3-18.6-54.8-27.4c-29.3-16.7-47-31.3-44.1-37.8l-322,528.1
			c-70.7,103.1,3.1,243.2,128.1,243.2c16.8,0,33.4-2.7,49.2-8c15.8-5.3,30.7-13.1,44.1-23.2l247.3-185.9
			c14.9-11.2,36.2-2.5,39.2,15.8l32.3,201.3h842.6C2158.5,1232.4,2230.2,1109,2173.7,1009.8z M1798.9,1032.9l27-61.4
			c4.6-10.5,19.4-10.7,24.2-0.3l29.3,61.8L1798.9,1032.9L1798.9,1032.9z"/>
		<path class="st7" d="M1278.4,599.5c0-51.7,106.7-115.6,236.1-131.9c194.1-24.3,236.1,80.2,236.1,131.9"/>
		<path class="st15" d="M1728.2,600.4c0,46.3-213.7,141.1-213.7,141.1s-213.7-94.8-213.7-141.1s101.6-99.9,218.7-114.2
			C1688,465.6,1728.2,554,1728.2,600.4z"/>
		<path class="st17" d="M1728.2,600.4c0,46.3-213.7,141.1-213.7,141.1s-213.7-94.8-213.7-141.1c0-0.2,0-0.4,0-0.6h427.4
			C1728.2,599.9,1728.2,600.1,1728.2,600.4z"/>
		<path class="st9" d="M1750.5,599.4c0,51.1-236,167.3-236,167.3s-236-116.1-236-167.3"/>
		<path class="st20" d="M1696.6,1230.1c13.2,0,23.9-43.7,23.9-97.5s-10.7-97.5-23.9-97.5"/>
		<line class="st21" x1="1195.2" y1="571.6" x2="1010.1" y2="941.7"/>
		<line class="st20" x1="1155" y1="933.2" x2="1185.6" y2="1134.6"/>
		<g>
			<g>
				<line class="st20" x1="1504.5" y1="790.4" x2="1524.5" y2="790.4"/>
				<line class="st20" x1="1504.5" y1="814.2" x2="1524.5" y2="814.2"/>
				<line class="st20" x1="1504.5" y1="837.9" x2="1524.5" y2="837.9"/>
				<line class="st20" x1="1504.5" y1="861.6" x2="1524.5" y2="861.6"/>
				<line class="st20" x1="1504.5" y1="885.3" x2="1524.5" y2="885.3"/>
				<line class="st20" x1="1504.5" y1="909.1" x2="1524.5" y2="909.1"/>
				<line class="st20" x1="1504.5" y1="910.2" x2="1524.5" y2="910.2"/>
				<line class="st20" x1="1504.5" y1="933.9" x2="1524.5" y2="933.9"/>
				<line class="st20" x1="1504.5" y1="957.6" x2="1524.5" y2="957.6"/>
				<line class="st20" x1="1504.5" y1="980.2" x2="1524.5" y2="980.2"/>
				<line class="st20" x1="1504.5" y1="1004" x2="1524.5" y2="1004"/>
				<line class="st20" x1="1504.5" y1="1027.7" x2="1524.5" y2="1027.7"/>
				<line class="st20" x1="1504.5" y1="1051.4" x2="1524.5" y2="1051.4"/>
				<line class="st20" x1="1504.5" y1="1075.1" x2="1524.5" y2="1075.1"/>
				<line class="st20" x1="1504.5" y1="1098.9" x2="1524.5" y2="1098.9"/>
				<line class="st20" x1="1504.5" y1="1122.6" x2="1524.5" y2="1122.6"/>
				<line class="st20" x1="1504.5" y1="1146.3" x2="1524.5" y2="1146.3"/>
				<line class="st20" x1="1504.5" y1="1170" x2="1524.5" y2="1170"/>
				<line class="st20" x1="1504.5" y1="1171.2" x2="1524.5" y2="1171.2"/>
				<line class="st20" x1="1504.5" y1="1194.9" x2="1524.5" y2="1194.9"/>
				<line class="st20" x1="1504.5" y1="1218.6" x2="1524.5" y2="1218.6"/>
			</g>
			<line class="st21" x1="1502.4" y1="758.1" x2="1502.4" y2="1134.6"/>
		</g>
		<line class="st20" x1="1685" y1="1034.9" x2="1925.5" y2="1034.9"/>
	</g>
	<g id="BOOK">
		<polygon class="st2" points="1015.8,1428.4 1783.7,1428.4 1711.5,1233.1 1099,1233.1 		"/>
		<path class="st19" d="M1015.8,1428.4c0-27.6,73.2-77.5,192.1-84.3c127.3-7.2,194,72.8,192.1,84.3H1015.8z"/>
		<path class="st22" d="M1399.9,1428.4c0,0-33.8-158-330.5-125.8l64.1-155.9c0,0,243-44.2,266.5,86.4L1399.9,1428.4z"/>
		<path class="st22" d="M1779.2,1416.1c-17.7-24.5-85.9-50.1-187.5-55.9c-120.8-6.9-187,50.5-191.8,66.1v-193.2
			c0,0,86.2-98.4,311.6,0L1779.2,1416.1z"/>
		<path class="st1" d="M1675.5,1335.3c-25.2-6.4-55.7-11.2-90.5-13.2c-17.3-1-33.4-0.5-48.2,1.1c-36.7,4.1-65.6,15.1-86.2,26.9"/>
		<path class="st1" d="M1666.6,1302c-24.1-5.7-52.8-10-85.2-11.9c-17.3-1-33.4-0.5-48.2,1.1c-36.7,4.1-65.6,15.1-86.2,26.9"/>
		<path class="st1" d="M1658.4,1268.8c-23-5.1-49.7-8.9-79.7-10.7c-17.3-1-33.4-0.5-48.2,1.1c-36.7,4.1-65.6,15.1-86.2,26.9"/>
		<line class="st23" x1="1691.4" y1="1224.3" x2="1755" y2="1397.5"/>
		<path class="st19" d="M1783.8,1428.4h-383.9v-2.1c4.8-15.6,71-73,191.8-66.1c101.6,5.8,169.8,31.4,187.5,55.9L1783.8,1428.4z"/>
	</g>
	<g id="HEAD_1_">
		<g id="NECK">
			<path class="st5" d="M1637,599.7c0,0-71.6,37.3-171,22.3l0,0c-24.7-3.7-51.2-10.7-78.6-22.3V479.3l128.8-80.2l19.3,32.1
				L1637,599.7z"/>
			<path class="st12" d="M1523.3,408.6c7.7,14.3,9,31.3,3.4,46.6L1466,622l0,0c-24.7-3.7-51.2-10.7-78.6-22.3V479.3l129.4-82.7
				L1523.3,408.6z"/>
		</g>
		<path id="HAIR" class="st12" d="M1512.2,354.7c0,0,15.1-134.3-38.6-146.6c-41-9.4-61.4,21.5-61.4,21.5s-22.2-32.4-56.6-17.2
			c-32.7,14.4-30.4,59.3-15.7,55.7s-14.2-32.4-45.1-11.1c-34.2,23.5,0,62.3,0,62.3s-25.3-12.2-37,12.7
			c-14.5,30.9,68.3,97.5,68.3,97.5L1512.2,354.7z"/>
		<g id="HEAD">
			<path id="HEAD_2_" class="st5" d="M1430.4,289.8l-85.9,34.5c-20.7,8.3-30.8,32-22.5,52.6l37.5,93.5
				c13.8,34.5,53.4,51.3,87.8,37.5l35.7-14.3c34.5-13.8,51.3-53.4,37.5-87.8l-37.5-93.5C1474.7,291.6,1451,281.5,1430.4,289.8z"/>
			<g id="EARS">
				<path class="st5" d="M1537.8,398.8l-17.3,7l-18.8-46.8l17.3-7c10.3-4.1,21.9,0.9,26,11.1l3.9,9.7
					C1553.1,383,1548.1,394.6,1537.8,398.8z"/>
				<path class="st12" d="M1340.9,474l17.3-7l-17.5-43.5l-17.3,7c-10.3,4.1-15.2,15.8-11.1,26l2.6,6.4
					C1319,473.1,1330.6,478.1,1340.9,474z"/>
				<path class="st24" d="M1516.7,383.8c-3.2-8.1,0.7-17.2,8.8-20.5"/>
			</g>
			<g id="FACE">
				<path class="st24" d="M1432.6,340.5c0,0,20.3,7.6,46.1-4.6"/>
				<path class="st24" d="M1389.7,374.7c0,0,30.3-3.1,41.3,47.9"/>
				<path class="st24" d="M1475.7,439.2c0,0-44.7-12-43.1,11.1"/>
				
					<ellipse transform="matrix(0.9426 -0.3339 0.3339 0.9426 -43.5339 511.4872)" class="st12" cx="1466.1" cy="382.4" rx="4.1" ry="10.1"/>
				
					<ellipse transform="matrix(0.9426 -0.3339 0.3339 0.9426 -59.7583 485.9214)" class="st12" cx="1383.6" cy="416.8" rx="4.1" ry="10.1"/>
			</g>
			<g id="GLASSES">
				<circle class="st25" cx="1468.5" cy="382.2" r="28.9"/>
				<circle class="st25" cx="1383.5" cy="415.2" r="28.9"/>
				<line class="st25" x1="1410.5" y1="404.8" x2="1441" y2="390.8"/>
			</g>
		</g>
	</g>
	<g id="ARMS">
		<g id="LEFT">
			<path class="st6" d="M1206.1,541c-1.7,3.9-11.3,4.9-25.8,2.9c-22.2-3-56-12.7-92-28.7c-20.6-9.2-39.3-18.6-54.7-27.4
				c-29.3-16.7-47-31.3-44.1-37.8l0,0c2.9-6.4,25.4-3.3,57.2,7c17.1,5.5,36.8,13.1,57.6,22.4c35.6,15.8,66.5,31.2,84.7,43.1
				C1201.4,530.5,1207.9,537,1206.1,541z"/>
			<path class="st12" d="M1375.8,338.2l-27.2,105.1l-24.5-61c-9.4-23.4,1.9-50.2,25-60L1375.8,338.2z"/>
			<path class="st5" d="M1376.8,336.3l-54,93.6c-6.2,10.8-17.8,17.5-30.3,17.5h-55.8c-8.2,0-15.5,5-18.6,12.5l-29,62.7l-8.5,18.3
				c-24.5-3.3-58.6-13.9-91.2-28.4c-12.2-5.4-24.1-11.1-35.1-16.8L1069,465l26.3-54.9c12.6-29.7,34.3-54.7,62-71.3l54.4-32.7
				c7.2-4.3,15.5-6.6,23.9-6.6h92.4c5.1,0,10.1,1.1,14.6,3.3l27.8,13.2C1378.1,319.7,1381,329,1376.8,336.3z"/>
			<path class="st24" d="M1246.2,339.3h66c4.9,0,9.7,1.1,14.1,3.2l26.7,12.8c7.3,3.5,10.1,12.5,6.1,19.5"/>
			<path class="st24" d="M1229.8,367.7h66c4.9,0,9.7,1.1,14.1,3.2l26.7,12.8c7.3,3.5,10.1,12.5,6.1,19.5"/>
			<path class="st24" d="M1210.5,404.8h66c4.9,0,9.7,1.1,14.1,3.2l26.7,12.8c7.3,3.5,10.1,12.5,6.1,19.5"/>
			<path class="st12" d="M1180.7,540.9c-24.5-3.3-58.6-13.9-91.2-28.4c-12.2-5.4-24.1-11.1-35.1-16.8l16.6-33.9
				c11.1,4.2,22,9,34.2,14.5c35.6,15.8,66.7,32.3,84.9,44.2L1180.7,540.9z"/>
			<line class="st24" x1="1191" y1="444.7" x2="1237.8" y2="444.7"/>
		</g>
		<g id="RIGHT">
			<ellipse class="st17" cx="1684.6" cy="1132.6" rx="23.9" ry="99.7"/>
			<path class="st5" d="M1708.5,1132.6c0,17.1-1,33.2-2.9,47.3c-6.2,15.8-18.9,28.3-34.9,34.2c-6.5,2.4-13.6,3.8-21,3.8H1559
				c-11.4,0-20.7,9.3-20.7,20.7v2.8c0,16.7-17.8,27.5-32.6,19.7l-42.6-22.3c-7.6-4-12.4-11.9-12.4-20.5V1185
				c0-12.5,5.9-24.2,15.8-31.7l65-48.9c11-8.3,24.4-12.7,38.1-12.7h136.7C1707.8,1104.2,1708.5,1118,1708.5,1132.6z"/>
			<path class="st24" d="M1547.9,1123.9l-59.7,44.9c-9.1,6.9-14.5,17.7-14.5,29.1v30.6c0,7.9,4.4,15.2,11.4,18.8"/>
			<path class="st24" d="M1578.3,1137.3l-59.7,44.9c-9.1,6.9-14.5,17.7-14.5,29.1v30.6c0,7.9,4.4,15.2,11.4,18.8"/>
			<path class="st12" d="M1708.5,1132.6c0,17.1-1,33.2-2.9,47.3c-6.2,15.8-18.9,28.3-34.9,34.2c-6.1-18.1-10.1-47.8-10.1-81.5
				c0-14.6,0.8-28.4,2.1-40.9h43.7C1707.8,1104.2,1708.5,1118,1708.5,1132.6z"/>
		</g>
	</g>
</g>
<g id="CUP">
	<ellipse class="st13" cx="1882.2" cy="1268.8" rx="108.4" ry="9.1"/>
	<path class="st3" d="M1972.4,1275.7h-44.8c-41.6,0-75.2-33.7-75.2-75.2v-63.9h195.3v63.8C2047.7,1242,2014,1275.7,1972.4,1275.7z"
		/>
	<path class="st14" d="M2075,1191.3h-27.4v-48.7h27.4c11.7,0,21.3,9.5,21.3,21.3v6.2C2096.3,1181.8,2086.7,1191.3,2075,1191.3z"/>
	<ellipse class="st26" cx="1950" cy="1135.9" rx="98.5" ry="19.7"/>
	<g>
		<path class="st14" d="M1852.5,1151.9c0,10.9,43.7,19.7,97.5,19.7s97.5-8.8,97.5-19.7"/>
		<path class="st14" d="M1852.5,1172.8c0,10.9,43.7,19.7,97.5,19.7s97.5-8.8,97.5-19.7"/>
		<path class="st14" d="M1852.5,1193.7c0,10.9,43.7,19.7,97.5,19.7s97.5-8.8,97.5-19.7"/>
		<path class="st14" d="M1854,1214.6c0,10.9,43,19.7,96,19.7s96-8.8,96-19.7"/>
		<path class="st14" d="M1861.5,1235.5c0,10.9,39.6,19.7,88.5,19.7s88.5-8.8,88.5-19.7"/>
	</g>
	<path class="st20" d="M1946.1,1100.9c-9.6-6.6-39.5-69.5-2.5-95.2c28.4-19.8,33.9,31.5,20.8,27.2c-22.8-7.5-36.7-107.9,22.8-101.7
		c26.2,2.7,23.3,40,0,41"/>
</g>
<g id="LAPTOP">
	<path class="st3" d="M783.1,1394.7H291.6c-13.2,0-25-8-29.9-20.2l-134.5-332.4c-6.4-15.9,5.3-33.3,22.4-33.3h491.5
		c13.2,0,25,8,29.9,20.2l134.5,332.4C812,1377.3,800.3,1394.7,783.1,1394.7z"/>
	<path class="st13" d="M760.3,1397.1H291.4c-12.5,0-23.8-7.6-28.5-19.2l-128.3-317.1c-6.1-15.2,5-31.7,21.4-31.7h468.9
		c12.5,0,23.8,7.6,28.5,19.2l128.3,317.1C787.8,1380.6,776.6,1397.1,760.3,1397.1z"/>
	<g>
		<path class="st17" d="M472.4,1252.9c-13.8,0-26.8-5.4-36.6-15.2c-8-8-12.4-18.6-12.4-29.8c0-11.3,4.4-21.9,12.4-29.8
			c6.5-6.5,15.2-10.1,24.4-10.1c9.2,0,17.9,3.6,24.4,10.1c11.1,11.1,11.1,29.1,0,40.2c-9.2,9.2-24.1,9.2-33.3,0
			c-1.6-1.6-1.6-4.1,0-5.7s4.1-1.6,5.7,0c6.1,6.1,15.9,6.1,22,0c8-8,8-20.9,0-28.9c-5-5-11.7-7.8-18.8-7.8c-7.1,0-13.8,2.8-18.8,7.8
			c-6.5,6.5-10,15-10,24.2c0,9.1,3.6,17.7,10,24.2c8.3,8.3,19.2,12.8,30.9,12.8s22.7-4.5,30.9-12.8c1.6-1.6,4.1-1.6,5.7,0
			s1.6,4.1,0,5.7C499.2,1247.5,486.2,1252.9,472.4,1252.9z"/>
	</g>
	<path class="st3" d="M959,1429.9H292.2c-7.7,0-13.9-6.2-13.9-13.9v-6.7c0-7.7,6.2-13.9,13.9-13.9H959c7.7,0,13.9,6.2,13.9,13.9v6.7
		C972.8,1423.7,966.6,1429.9,959,1429.9z"/>
</g>
</svg>
