<?xml version="1.0" ?><svg data-name="Layer 1" id="Layer_1" viewBox="0 0 64 64" xmlns="http://www.w3.org/2000/svg"><title/><path d="M21.46777,38.81689,20.35742,40.48a21.01258,21.01258,0,0,0,3.63037,1.9375l.76367-1.84863A18.9743,18.9743,0,0,1,21.46777,38.81689Z"/><path d="M21.40039,7.22852,20.2832,5.56934a21.11682,21.11682,0,0,0-3.17187,2.6206l1.418,1.41016A19.10447,19.10447,0,0,1,21.40039,7.22852Z"/><path d="M14.4541,30.3042a18.92075,18.92075,0,0,1-1.08545-3.55957l-1.96094.39209a20.88972,20.88972,0,0,0,1.20069,3.937Z"/><path d="M11.39014,18.9502A21.19577,21.19577,0,0,0,11,23v.042L13,23a19.18514,19.18514,0,0,1,.353-3.667Z"/><path d="M39.28613,40.55322a18.904,18.904,0,0,1-3.56006,1.08155l.38965,1.96191a20.903,20.903,0,0,0,3.938-1.19678Z"/><path d="M14.50781,11.376a20.99944,20.99944,0,0,0-1.93359,3.63232l1.84961.76172a18.93245,18.93245,0,0,1,1.749-3.28564Z"/><path d="M32.021,44,32,42a19.13717,19.13717,0,0,1-3.686-.35742l-.38574,1.96289A21.18455,21.18455,0,0,0,32,44Z"/><path d="M43.60547,5.49561a20.97783,20.97783,0,0,0-3.63428-1.9292L39.21143,5.416A19.03348,19.03348,0,0,1,42.499,7.16162Z"/><path d="M46.85693,37.8418l-1.415-1.41407a19.12968,19.12968,0,0,1-2.87646,2.36573l1.11426,1.66113A21.17775,21.17775,0,0,0,46.85693,37.8418Z"/><path d="M36.02832,2.38623A21.15915,21.15915,0,0,0,32,2h-.063L32,4a19.1916,19.1916,0,0,1,3.64648.34912Z"/><path d="M28.23486,4.37305l-.39355-1.96094a20.83857,20.83857,0,0,0-3.93555,1.20508l.77149,1.84472A18.88416,18.88416,0,0,1,28.23486,4.37305Z"/><path d="M53,23v-.085L51,23a19.18941,19.18941,0,0,1-.36084,3.70557l1.96191.38769A21.18081,21.18081,0,0,0,53,23Z"/><path d="M49.418,11.26514a21.14388,21.14388,0,0,0-2.62354-3.169l-1.40918,1.419a19.16967,19.16967,0,0,1,2.37549,2.86914Z"/><path d="M18.58643,36.45654A19.14644,19.14644,0,0,1,16.21729,33.582l-1.66016,1.11621a21.17405,21.17405,0,0,0,2.61719,3.17432Z"/><path d="M52.584,18.81934a20.92959,20.92959,0,0,0-1.209-3.93409l-1.84473.77344A18.91741,18.91741,0,0,1,50.624,19.21582Z"/><path d="M51.4082,31.0332l-1.84765-.76562a19.02964,19.02964,0,0,1-1.75635,3.28271l1.66309,1.11133A21.05388,21.05388,0,0,0,51.4082,31.0332Z"/><path d="M31.5,38.18365V17.44171A3.49466,3.49466,0,0,1,25.5,15h1a2.5,2.5,0,0,0,5,0V7.81635A5.574,5.574,0,0,0,28.62067,7a5.89928,5.89928,0,0,0-5.79309,6c0,.03015.004.05927.00439.08929A5.93862,5.93862,0,0,0,18,19a6.09175,6.09175,0,0,0,1.48383,4A6.09175,6.09175,0,0,0,18,27c0,2.88721,1.88818,5.81519,4.74341,5.98383a2.49291,2.49291,0,0,0-.77619-4.8642v-1a3.49021,3.49021,0,0,1,1.1037,6.80456A5.67125,5.67125,0,0,0,28.62067,39,5.574,5.574,0,0,0,31.5,38.18365Z"/><path d="M46,27a6.09175,6.09175,0,0,0-1.48383-4A6.09175,6.09175,0,0,0,46,19c0-2.82227-1.80316-5.68658-4.55115-5.97168a2.4958,2.4958,0,0,0,.10193,4.98969v1a3.496,3.496,0,0,1-.621-6.9372A5.67174,5.67174,0,0,0,35.37933,7,5.574,5.574,0,0,0,32.5,7.81635V23.55829A3.49466,3.49466,0,0,1,38.5,26h-1a2.5,2.5,0,0,0-5,0V38.18365A5.574,5.574,0,0,0,35.37933,39a5.89928,5.89928,0,0,0,5.79309-6c0-.03015-.004-.05927-.00439-.08929A5.93862,5.93862,0,0,0,46,27Z"/><path d="M59,27h-.19177a3.43306,3.43306,0,0,0-3.13977,3.26605L53.19934,42.97394a2.79331,2.79331,0,0,1,.62506,4.42541L47.423,52.79877l-.64453-.76465,6.37012-5.37061a1.77885,1.77885,0,0,0,.49707-1.24707,1.79746,1.79746,0,0,0-.68371-1.41479,2.11317,2.11317,0,0,0-2.5481-.05072L42.829,49.45105A1.9522,1.9522,0,0,0,42,51.04785V62H52V59.18579l7.02594-4.473A7.46367,7.46367,0,0,0,62,48.49823l-.01685-17.66772C61.98114,28.71423,60.752,27,59,27Z"/><path d="M4.97406,54.71283,12,59.18579V62H22V51.04785a1.9522,1.9522,0,0,0-.829-1.5968l-7.58484-5.50012a2.11317,2.11317,0,0,0-2.5481.05072,1.79746,1.79746,0,0,0-.68371,1.41479,1.77885,1.77885,0,0,0,.49707,1.24707l6.37012,5.37061-.64453.76465L10.1756,47.39935a2.77371,2.77371,0,0,1,.62506-4.42541L8.33154,30.26605A3.43306,3.43306,0,0,0,5.19177,27H5c-1.752,0-2.98114,1.71423-2.98315,3.83051L2,48.49823A7.46367,7.46367,0,0,0,4.97406,54.71283Z"/></svg>