<?xml version="1.0" ?><svg data-name="Layer 1" id="Layer_1" viewBox="0 0 32 32" xmlns="http://www.w3.org/2000/svg"><defs><style>.cls-1{fill:#f43b33;}</style></defs><title/><path class="cls-1" d="M21.65,7.06H22a9.41,9.41,0,0,0-11.39,0H21.65Z"/><path class="cls-1" d="M10.86,25.17h-.3a9.41,9.41,0,0,0,11.39,0H10.86Z"/><rect class="cls-1" height="6.24" width="1.48" x="12.32" y="14.28"/><path class="cls-1" d="M6.17,16.11a11.23,11.23,0,0,1,4.39-9,5.85,5.85,0,0,0-5.27,6v6a5.85,5.85,0,0,0,5.27,6A11.24,11.24,0,0,1,6.17,16.11Z"/><path class="cls-1" d="M13.06,11.71a.88.88,0,0,0-.66.29,1,1,0,0,0-.28.71,1.07,1.07,0,0,0,.28.73.89.89,0,0,0,.67.3.85.85,0,0,0,.66-.3,1,1,0,0,0,.28-.71,1,1,0,0,0-.28-.72A.87.87,0,0,0,13.06,11.71Z"/><path class="cls-1" d="M18.38,14.12a2.21,2.21,0,0,0-.84.17,3.75,3.75,0,0,0-.91.63v-.64H15.15v6.24h1.48V18a8,8,0,0,1,.06-1.26,1.79,1.79,0,0,1,.45-.88,1.07,1.07,0,0,1,.77-.32.92.92,0,0,1,.58.19,1,1,0,0,1,.33.56,6.77,6.77,0,0,1,.1,1.49v2.73h1.46V16.39a2.3,2.3,0,0,0-.51-1.62A2,2,0,0,0,18.38,14.12Z"/><path class="cls-1" d="M22,7.07a11.23,11.23,0,0,1,4.39,9A11.24,11.24,0,0,1,22,25.16a5.86,5.86,0,0,0,5.27-6v-6A5.86,5.86,0,0,0,22,7.07Z"/></svg>